PathFileType	4	(X/Y/Z)	c:/Users/goper/Files/vsCode/490R/osim_files/A02/A02_Slow_04.trc
DataRate	CameraRate	NumFrames	NumMarkers	Units                	OrigDataRate	OrigDataStartFrame	OrigNumFrames
250.00	250.00	9	36	mm	250.0	2330	3106
                Frame#	Time	Mobility_markerset:LPSIS			Mobility_markerset:LASIS			Mobility_markerset:LTH1			Mobility_markerset:LTH2			Mobility_markerset:LTH3			Mobility_markerset:LTH4			Mobility_markerset:LLFE			Mobility_markerset:LMFE			Mobility_markerset:LSH1			Mobility_markerset:LSH2			Mobility_markerset:LSH3			Mobility_markerset:LSH4			Mobility_markerset:LLMAL			Mobility_markerset:LMMAL			Mobility_markerset:LCAL			Mobility_markerset:LMTP5			Mobility_markerset:LTOE			Mobility_markerset:LMTP1			Mobility_markerset:RPSIS			Mobility_markerset:RASIS			Mobility_markerset:RTH1			Mobility_markerset:RTH2			Mobility_markerset:RTH3			Mobility_markerset:RTH4			Mobility_markerset:RLFE			Mobility_markerset:RMFE			Mobility_markerset:RSH1			Mobility_markerset:RSH2			Mobility_markerset:RSH3			Mobility_markerset:RSH4			Mobility_markerset:RLMAL			Mobility_markerset:RMMAL			Mobility_markerset:RCAL			Mobility_markerset:RMTP1			Mobility_markerset:RTOE			Mobility_markerset:RMTP5		
		X1	Y1	Z1	X2	Y2	Z2	X3	Y3	Z3	X4	Y4	Z4	X5	Y5	Z5	X6	Y6	Z6	X7	Y7	Z7	X8	Y8	Z8	X9	Y9	Z9	X10	Y10	Z10	X11	Y11	Z11	X12	Y12	Z12	X13	Y13	Z13	X14	Y14	Z14	X15	Y15	Z15	X16	Y16	Z16	X17	Y17	Z17	X18	Y18	Z18	X19	Y19	Z19	X20	Y20	Z20	X21	Y21	Z21	X22	Y22	Z22	X23	Y23	Z23	X24	Y24	Z24	X25	Y25	Z25	X26	Y26	Z26	X27	Y27	Z27	X28	Y28	Z28	X29	Y29	Z29	X30	Y30	Z30	X31	Y31	Z31	X32	Y32	Z32	X33	Y33	Z33	X34	Y34	Z34	X35	Y35	Z35	X36	Y36	Z36

2330	9.31600	-2703.46680	976.10687	343.58749	-2845.88208	932.57336	427.65588	-2783.47778	686.71222	461.80112	-2783.56372	642.01086	452.16766	-2726.51392	684.75403	435.55252	0.00000	0.00000	0.00000	-2772.84082	468.98038	405.82004	-2806.83032	447.40521	292.75552	-2690.24780	405.02679	391.17999	-2677.90332	361.50531	393.88895	-2746.06860	386.12189	405.11646	-2727.76221	345.20410	407.76340	-2656.03418	110.70039	359.49118	-2676.58179	115.18893	278.65131	-2588.57178	91.62337	309.40356	-2739.97290	48.32781	385.89447	-2797.42261	63.14192	324.67841	-2764.53857	39.76300	274.80371	0.00000	0.00000	0.00000	-2710.31372	992.77295	245.81262	-2891.80200	624.74609	157.21013	-2913.54272	585.60303	154.19029	-2949.09106	647.08032	152.78671	-2960.96655	605.18365	150.07568	-2965.66675	485.66605	141.86063	-2994.61670	493.96323	272.75745	-3014.17310	305.77292	159.37343	0.00000	0.00000	0.00000	-3070.66968	325.46420	150.43861	-3083.48340	280.12604	156.59373	0.00000	0.00000	0.00000	-3100.17725	118.06212	247.75786	-3047.54907	74.21375	209.34605	-3228.62354	127.05544	227.52100	-3242.58423	146.01085	190.70160	-3213.65527	121.89225	137.37686
2331	9.32000	-2706.93359	975.17883	343.51785	-2849.33228	931.41370	427.44043	-2786.63428	685.77972	461.82242	-2786.47876	641.06964	452.10193	-2729.60107	683.94220	435.87610	0.00000	0.00000	0.00000	-2774.65967	468.06955	405.66949	-2808.18774	446.52499	292.33783	-2691.69824	404.31989	391.14172	-2679.46509	361.02899	394.08316	-2747.62671	385.24240	404.81668	-2729.25928	344.56702	407.60568	-2655.75122	110.49776	359.01917	-2676.50488	114.82479	278.23422	-2588.43994	91.21932	309.18329	-2739.95166	48.38282	385.82986	-2797.31055	63.16778	324.63171	-2764.35571	39.51180	274.76083	-2713.79126	991.67456	244.01923	0.00000	0.00000	0.00000	-2897.39966	623.63239	155.84424	-2918.77246	584.26959	154.41936	-2953.75122	646.01025	153.00870	-2966.10254	604.23730	150.32658	-2971.97241	484.80276	142.04909	-3000.75098	493.24844	272.92340	-3022.08154	305.48053	159.42090	0.00000	0.00000	0.00000	-3078.33862	325.57510	150.52542	-3091.71436	280.39493	156.64619	0.00000	0.00000	0.00000	-3109.85498	118.39795	247.83501	-3057.26196	74.05016	209.14816	-3238.27490	128.70616	227.40251	-3251.78564	147.69763	190.45018	-3223.20825	123.39999	137.31377
2332	9.32400	-2710.41162	974.70251	345.59500	-2852.89258	930.32983	427.28320	-2789.85474	684.79388	461.79916	-2791.72559	641.01617	452.56949	-2732.54834	683.14038	436.13541	0.00000	0.00000	0.00000	-2776.55371	467.01129	405.32489	-2809.35400	445.60275	291.81113	-2693.11621	403.52991	391.05664	-2680.84888	360.39655	394.08301	-2749.15991	384.28119	404.46521	-2730.70264	343.70029	407.30972	-2656.10938	110.26302	359.12424	-2676.44678	114.45000	277.77505	-2588.36279	90.85025	308.89532	-2739.92822	48.49521	385.77682	-2797.21021	63.11356	324.51889	-2764.40845	39.33628	274.70453	-2717.27832	990.43011	243.86606	0.00000	0.00000	0.00000	-2901.13354	621.26465	158.36188	-2924.20093	582.87341	154.74747	-2958.55054	645.03217	153.23177	-2971.18970	603.24915	150.51292	-2978.22339	483.99408	142.24628	-3006.92407	492.58490	273.10184	-3030.01660	305.05536	159.59254	0.00000	0.00000	0.00000	-3086.03491	325.79462	150.66789	-3099.77808	280.62430	156.70193	0.00000	0.00000	0.00000	0.00000	0.00000	0.00000	-3065.78540	74.32590	208.02815	-3247.75415	130.27730	227.31406	-3261.01953	149.42526	190.29712	-3232.69141	124.85224	137.23216
2333	9.32800	-2714.01611	973.70581	345.78802	-2856.58301	929.30768	427.10660	-2792.93921	683.72858	461.73682	-2792.23560	639.02582	451.88852	-2735.45190	682.40039	436.36090	0.00000	0.00000	0.00000	-2777.83545	466.01398	404.17380	-2810.64868	444.75378	291.32370	-2694.78369	402.97446	391.12180	-2682.26416	359.74033	394.00031	-2750.73413	383.36624	404.12378	-2732.15576	342.87000	406.92145	-2655.91284	110.13271	358.47491	-2676.36060	114.06253	277.30096	-2588.27295	90.40253	308.50552	-2739.93774	48.58207	385.71167	-2797.17090	63.07119	324.40714	-2764.44458	39.13226	274.63589	-2721.40210	988.97699	244.17148	0.00000	0.00000	0.00000	-2907.14404	620.22290	157.03554	-2929.25903	581.55463	154.90935	-2963.28369	643.99780	153.48671	-2976.24390	602.33221	150.78198	-2984.07349	482.91852	142.45920	-3013.04370	491.94791	273.28430	-3038.11938	304.86121	158.08981	0.00000	0.00000	0.00000	-3093.53442	325.76599	150.60747	-3107.73364	280.84265	156.72816	0.00000	0.00000	0.00000	0.00000	0.00000	0.00000	-3075.37720	74.40249	207.86472	-3256.98926	131.73915	227.19839	-3270.49902	150.92924	190.48659	-3242.03125	126.23573	137.10130
2334	9.33200	-2717.60083	972.73798	345.54657	-2860.15723	928.13812	426.83807	-2795.44531	682.25641	461.16006	-2795.08984	637.92786	451.72559	-2739.07300	682.57959	439.37396	0.00000	0.00000	0.00000	-2779.75903	465.09027	403.86823	-2811.86157	443.88092	290.76019	-2696.50220	402.37051	391.09518	-2683.73462	359.15161	393.96301	-2752.29712	382.52686	403.73096	-2733.62329	341.98706	406.67560	-2655.92871	110.04937	358.12817	-2676.29639	113.71198	276.83340	-2588.19092	90.04220	308.17010	-2739.91992	48.66846	385.62878	-2797.11353	63.03890	324.32095	-2764.45825	38.89156	274.54868	-2725.07373	987.60785	243.97397	0.00000	0.00000	0.00000	-2911.18896	619.15643	156.32625	-2934.61401	580.14716	155.16281	-2967.93945	642.93115	153.71274	-2981.25952	601.39911	150.98804	-2990.15112	482.06320	142.60367	-3019.06055	491.24768	273.39761	0.00000	0.00000	0.00000	0.00000	0.00000	0.00000	-3100.97485	325.80063	150.65106	-3115.52661	281.07510	156.77599	0.00000	0.00000	0.00000	-3139.01904	119.69726	247.15047	0.00000	0.00000	0.00000	-3266.07397	133.20821	227.12003	-3279.06812	152.59547	190.09819	-3251.23486	127.66207	137.00232
2335	9.33600	-2721.23389	971.65607	345.38370	-2867.00244	928.14075	425.95859	-2798.66284	681.25616	461.04645	-2797.90503	636.75671	451.57025	-2741.98999	681.56104	439.46805	0.00000	0.00000	0.00000	-2781.77271	464.23676	403.57339	-2813.09937	443.10385	290.22363	-2698.09277	401.76208	391.07333	-2685.25977	358.63525	393.88242	-2753.89893	381.74173	403.36096	-2735.13647	341.23764	406.31610	-2655.92334	109.86031	357.89639	-2676.25391	113.35033	276.40884	-2588.06812	89.80041	307.84177	-2739.89868	48.75257	385.55612	-2797.03882	63.00057	324.17783	-2764.52466	38.68077	274.48303	0.00000	0.00000	0.00000	0.00000	0.00000	0.00000	-2915.48633	617.79895	156.43211	-2939.57642	578.76355	155.27385	-2972.63232	641.87183	153.94894	-2986.30591	600.42157	151.16731	-2996.20923	481.21564	142.72333	-3024.88696	490.50815	273.51270	0.00000	0.00000	0.00000	0.00000	0.00000	0.00000	-3108.40649	326.06390	150.78380	-3123.20068	281.21979	156.72787	0.00000	0.00000	0.00000	0.00000	0.00000	0.00000	-3089.05444	76.03214	204.53387	-3274.95728	134.64993	227.04045	-3287.83252	154.15341	190.09094	-3260.17896	129.06926	136.94041
2336	9.34000	0.00000	0.00000	0.00000	-2870.45044	926.84833	425.77954	-2802.63306	680.56097	461.42657	-2803.52783	636.78638	452.01059	-2744.70825	679.93146	437.12415	0.00000	0.00000	0.00000	-2783.79224	463.36746	403.23587	-2814.06519	442.17834	289.50058	-2699.79272	401.22391	390.99631	-2687.08545	357.97855	394.10339	-2755.56421	380.95374	402.95413	-2736.70020	340.58661	405.96909	-2655.91699	109.83806	357.45425	-2676.22217	113.01371	276.02328	-2588.03296	89.44041	307.49591	-2739.84424	48.80822	385.48206	-2796.95874	62.98572	324.06427	-2764.56201	38.49183	274.41312	-2724.53564	950.02563	307.03699	0.00000	0.00000	0.00000	-2923.18140	615.34235	157.62601	-2944.86646	577.42999	155.42023	-2977.25146	640.85162	154.16655	-2991.26123	599.51837	151.35953	-3002.36865	480.52826	142.77867	-3030.72070	489.83386	273.64267	-3061.05542	303.44772	158.13136	0.00000	0.00000	0.00000	-3115.48315	325.99576	150.68411	-3130.79565	281.41772	156.69536	0.00000	0.00000	0.00000	-3156.07446	120.20280	247.57599	-3097.88599	76.13681	204.21016	-3284.73950	136.77177	226.92018	-3296.37085	155.71021	190.05096	-3269.02588	130.47040	136.82402
2337	9.34400	-2729.57007	968.93567	342.98920	-2874.11743	925.68066	425.60114	-2805.93237	679.45837	461.31796	-2804.07227	634.75549	451.22510	-2747.92480	679.12024	437.32800	0.00000	0.00000	0.00000	-2785.77100	462.47415	402.80682	-2815.54224	441.56366	289.11304	-2701.42554	400.79367	390.97614	-2688.24805	357.76221	393.81042	-2757.29834	380.25510	402.62122	-2738.17651	339.90515	405.61017	-2655.90454	109.73837	357.13702	-2676.00000	112.57310	275.85260	-2587.91235	89.10078	307.09656	-2739.81958	48.89428	385.43796	-2796.87402	62.98421	323.95810	-2764.59424	38.30360	274.33871	0.00000	0.00000	0.00000	0.00000	0.00000	0.00000	0.00000	0.00000	0.00000	-2949.84521	576.13098	155.44138	-2981.92822	639.83484	154.33514	-2996.30078	598.67224	151.46945	-3007.93384	479.51068	142.81935	-3036.37109	489.07547	273.70685	-3067.71680	303.41028	159.15192	0.00000	0.00000	0.00000	-3122.55127	326.07748	150.65334	-3138.17651	281.61893	156.64011	0.00000	0.00000	0.00000	0.00000	0.00000	0.00000	-3106.57227	76.24152	203.78871	-3293.21655	138.15031	226.84442	-3304.67236	157.24991	190.14500	-3277.78711	131.91096	136.67404
2338	9.34800	-2732.26221	968.02246	342.06281	-2875.03760	923.45880	426.13715	-2809.05469	678.36292	461.04239	-2807.10791	633.69977	451.00867	-2751.19092	678.32233	437.59732	0.00000	0.00000	0.00000	-2787.87842	461.66727	402.49796	-2816.71069	440.80841	288.48898	-2702.94141	400.22076	390.79611	-2690.23413	357.23349	394.20691	-2758.95776	379.52289	402.28503	-2739.69458	339.28027	405.21249	-2655.90039	109.62733	356.84183	-2675.95044	112.29390	275.47818	-2587.86621	88.74236	306.74280	-2739.79639	48.96860	385.40295	-2796.85449	63.01963	323.85690	-2764.88135	38.23349	274.25473	0.00000	0.00000	0.00000	0.00000	0.00000	0.00000	-2932.73853	612.47876	157.75099	-2954.93921	574.94696	155.52760	-2986.49414	638.80200	154.45839	-3001.22510	597.76709	151.60138	-3013.69800	478.73068	142.83992	-3041.88892	488.37543	273.71368	-3074.86011	303.17883	158.79591	0.00000	0.00000	0.00000	-3129.68457	326.26187	150.73329	-3145.41870	281.77518	156.49347	0.00000	0.00000	0.00000	0.00000	0.00000	0.00000	-3115.02222	76.32632	203.39877	-3301.48975	139.43332	226.75102	-3312.94727	158.75537	190.16460	-3286.69092	133.83673	136.59186
